<?xml version="1.0" encoding="UTF-8"?>
<svg version="1.1" xmlns="http://www.w3.org/2000/svg" width="250" height="43">
<path d="M0 0 C3.5443509 0.17721754 5.74314417 0.33032434 8.75 2.1875 C9.5625 4.8125 9.5625 4.8125 9.75 7.1875 C10.41 4.8775 11.07 2.5675 11.75 0.1875 C13.3754308 0.32845064 15.00034051 0.47542087 16.625 0.625 C17.52992188 0.70621094 18.43484375 0.78742187 19.3671875 0.87109375 C21.75 1.1875 21.75 1.1875 23.75 2.1875 C23.75 3.1775 23.75 4.1675 23.75 5.1875 C24.41 5.1875 25.07 5.1875 25.75 5.1875 C26.08 4.1975 26.41 3.2075 26.75 2.1875 C30.70197865 -0.07077351 33.40174519 0.14769994 37.75 1.1875 C38.74 1.5175 39.73 1.8475 40.75 2.1875 C41.08 1.5275 41.41 0.8675 41.75 0.1875 C52.08333333 0.1875 62.41666667 0.1875 72.75 0.1875 C73.61625 0.166875 74.4825 0.14625 75.375 0.125 C77.75 0.1875 77.75 0.1875 78.75 1.1875 C78.82313567 3.71799402 78.84247527 6.22054837 78.8125 8.75 C78.80798828 9.46091797 78.80347656 10.17183594 78.79882812 10.90429688 C78.78700864 12.66540013 78.76907263 14.42646036 78.75 16.1875 C73.41666667 16.1875 68.08333333 16.1875 62.75 16.1875 C62.255 13.7125 62.255 13.7125 61.75 11.1875 C61.09 12.8375 60.43 14.4875 59.75 16.1875 C54.47 16.1875 49.19 16.1875 43.75 16.1875 C43.255 13.7125 43.255 13.7125 42.75 11.1875 C41.904375 12.0125 41.05875 12.8375 40.1875 13.6875 C37.52153292 15.91756251 36.73078166 16.18978014 33.0625 16.625 C29.75 16.1875 29.75 16.1875 26.75 14.1875 C26.42 14.8475 26.09 15.5075 25.75 16.1875 C20.8 16.1875 15.85 16.1875 10.75 16.1875 C10.42 15.5275 10.09 14.8675 9.75 14.1875 C8.76 14.8475 7.77 15.5075 6.75 16.1875 C4.3046875 16.41796875 4.3046875 16.41796875 1.625 16.375 C0.73554688 16.36855469 -0.15390625 16.36210937 -1.0703125 16.35546875 C-3.25 16.1875 -3.25 16.1875 -4.25 15.1875 C-4.34909302 12.85589945 -4.37970504 10.52120058 -4.375 8.1875 C-4.37757813 6.90875 -4.38015625 5.63 -4.3828125 4.3125 C-4.20985349 0.24287616 -4.20985349 0.24287616 0 0 Z M31.75 7.1875 C31.75 7.8475 31.75 8.5075 31.75 9.1875 C32.74 9.1875 33.73 9.1875 34.75 9.1875 C34.75 8.5275 34.75 7.8675 34.75 7.1875 C33.76 7.1875 32.77 7.1875 31.75 7.1875 Z M23.75 8.1875 C24.08 9.8375 24.41 11.4875 24.75 13.1875 C25.08 12.5275 25.41 11.8675 25.75 11.1875 C25.09 10.1975 24.43 9.2075 23.75 8.1875 Z " fill="#BCD539" transform="translate(160.25,4.8125)"/>
<path d="M0 0 C0.66 0 1.32 0 2 0 C2.33 -0.33 2.66 -0.66 3 -1 C4.80812724 -1.15091913 6.62330617 -1.22169008 8.4375 -1.25 C9.42621094 -1.27578125 10.41492188 -1.3015625 11.43359375 -1.328125 C12.28050781 -1.21984375 13.12742187 -1.1115625 14 -1 C14.66 -0.01 15.32 0.98 16 2 C16.70125 1.484375 17.4025 0.96875 18.125 0.4375 C21.70226119 -1.3511306 23.22365304 -1.20521711 27 0 C29.375 1.625 29.375 1.625 31 4 C31.5625 7.5 31.5625 7.5 31 11 C29.0625 13.5 29.0625 13.5 26 15 C22.91062769 15.06818649 20.00302237 14.72593723 17 14 C16.67 13.67 16.34 13.34 16 13 C15.67 13.66 15.34 14.32 15 15 C10.71 15 6.42 15 2 15 C2 14.34 2 13.68 2 13 C1.46375 13.33 0.9275 13.66 0.375 14 C-2.72046073 15.30335189 -4.66574641 15.47632194 -8 15 C-11.36344489 12.51397551 -12.80057749 11.08574477 -13.5625 6.9375 C-12.87808796 3.36334823 -11.85181131 2.19996872 -9 0 C-5.50022502 -1.16659166 -3.57216487 -0.68403157 0 0 Z M1 3 C0.67 3.99 0.34 4.98 0 6 C0.99 6.495 0.99 6.495 2 7 C1.67 5.68 1.34 4.36 1 3 Z M22 6 C22 6.66 22 7.32 22 8 C22.66 8 23.32 8 24 8 C24 7.34 24 6.68 24 6 C23.34 6 22.68 6 22 6 Z " fill="#BCD539" transform="translate(79,6)"/>
<path d="M0 0 C2.36748004 1.00931523 3.67842428 2.1779416 5.47119141 4.02050781 C6.08994141 4.64892578 6.70869141 5.27734375 7.34619141 5.92480469 C7.98041016 6.58416016 8.61462891 7.24351563 9.26806641 7.92285156 C9.91775391 8.58607422 10.56744141 9.24929688 11.23681641 9.93261719 C12.83753401 11.56864473 14.43082833 13.21126069 16.01806641 14.86035156 C13.99505694 19.2966171 11.03938882 22.24286516 7.64306641 25.67285156 C7.06556641 26.28322266 6.48806641 26.89359375 5.89306641 27.52246094 C5.32845703 28.09416016 4.76384766 28.66585937 4.18212891 29.25488281 C3.67117676 29.77928955 3.16022461 30.30369629 2.63378906 30.84399414 C1.01806641 31.86035156 1.01806641 31.86035156 -0.96386719 31.72070312 C-3.33134723 30.7113879 -4.64229146 29.54276153 -6.43505859 27.70019531 C-7.05380859 27.07177734 -7.67255859 26.44335938 -8.31005859 25.79589844 C-8.94427734 25.13654297 -9.57849609 24.4771875 -10.23193359 23.79785156 C-10.88162109 23.13462891 -11.53130859 22.47140625 -12.20068359 21.78808594 C-13.80140119 20.15205839 -15.39469552 18.50944244 -16.98193359 16.86035156 C-14.95892413 12.42408603 -12.00325601 9.47783797 -8.60693359 6.04785156 C-7.74068359 5.13229492 -7.74068359 5.13229492 -6.85693359 4.19824219 C-6.29232422 3.62654297 -5.72771484 3.05484375 -5.14599609 2.46582031 C-4.63504395 1.94141357 -4.1240918 1.41700684 -3.59765625 0.87670898 C-1.98193359 -0.13964844 -1.98193359 -0.13964844 0 0 Z M-0.98193359 10.86035156 C-2.30193359 12.18035156 -3.62193359 13.50035156 -4.98193359 14.86035156 C-4.32193359 16.18035156 -3.66193359 17.50035156 -2.98193359 18.86035156 C-1.66193359 18.86035156 -0.34193359 18.86035156 1.01806641 18.86035156 C2.79216449 16.94012453 2.79216449 16.94012453 4.01806641 14.86035156 C2.36806641 13.54035156 0.71806641 12.22035156 -0.98193359 10.86035156 Z " fill="#BCD539" transform="translate(19.98193359375,5.1396484375)"/>
<path d="M0 0 C1.27875 0.165 2.5575 0.33 3.875 0.5 C4.205 0.17 4.535 -0.16 4.875 -0.5 C6.70615883 -0.59851171 8.54119933 -0.62972629 10.375 -0.625 C11.3753125 -0.62757813 12.375625 -0.63015625 13.40625 -0.6328125 C15.875 -0.5 15.875 -0.5 16.875 0.5 C16.94813567 3.03049402 16.96747527 5.53304837 16.9375 8.0625 C16.93298828 8.77341797 16.92847656 9.48433594 16.92382812 10.21679688 C16.91200864 11.97790013 16.89407263 13.73896036 16.875 15.5 C14.91674127 15.52694851 12.95837774 15.54637218 11 15.5625 C9.36417969 15.57990234 9.36417969 15.57990234 7.6953125 15.59765625 C4.875 15.5 4.875 15.5 2.875 14.5 C1.885 14.995 1.885 14.995 0.875 15.5 C-2.81907253 15.9104525 -4.7060823 15.72767266 -8 13.9375 C-10.125 11.5 -10.125 11.5 -10.625 8 C-10.11518374 4.43128619 -9.68833571 2.96839735 -7.125 0.5 C-4.1075338 -0.50582207 -3.01959413 -0.49026621 0 0 Z M2.875 4.5 C2.545 5.16 2.215 5.82 1.875 6.5 C2.535 6.5 3.195 6.5 3.875 6.5 C3.545 5.84 3.215 5.18 2.875 4.5 Z M-3.125 6.5 C-2.125 8.5 -2.125 8.5 -2.125 8.5 Z " fill="#BCD539" transform="translate(135.125,5.5)"/>
<path d="M0 0 C2.88437779 1.29299694 4.87219421 2.65941363 7 5 C8.32 3.35 9.64 1.7 11 0 C15.29238623 1.65091778 17.8793915 4.73754566 21 8 C19.61811547 11.21043882 18.07578097 13.04936365 15.375 15.25 C14.74335937 15.77078125 14.11171875 16.2915625 13.4609375 16.828125 C12.97882812 17.21484375 12.49671875 17.6015625 12 18 C10.62437146 16.71034824 9.29233607 15.37310707 8 14 C8 13.34 8 12.68 8 12 C5.36 13.98 2.72 15.96 0 18 C-1.32 16.68 -2.64 15.36 -4 14 C-3.62875 13.0925 -3.2575 12.185 -2.875 11.25 C-1.69640701 8.11902985 -1.69640701 8.11902985 -2.875 5.625 C-3.24625 5.08875 -3.6175 4.5525 -4 4 C-2.68 2.68 -1.36 1.36 0 0 Z M9 7 C9.33 7.99 9.66 8.98 10 10 C10 9.01 10 8.02 10 7 C9.67 7 9.34 7 9 7 Z " fill="#BCD539" transform="translate(38,12)"/>
<path d="M0 0 C8 0 8 0 12 2 C12.33 2.33 12.66 2.66 13 3 C12.96778732 4.93276057 12.93196363 6.86604227 12.83984375 8.796875 C12.92834421 11.55334063 12.92834421 11.55334063 15 16 C10.05 16 5.1 16 0 16 C0 10.72 0 5.44 0 0 Z " fill="#BCD539" transform="translate(111,5)"/>
<path d="M0 0 C-0.33 2.97 -0.66 5.94 -1 9 C-3.875 9.125 -3.875 9.125 -7 9 C-9 7 -9 7 -9.375 4.5625 C-9 2 -9 2 -7.3125 0.125 C-4.42729162 -1.27861489 -3.01268757 -0.92054342 0 0 Z M-6 3 C-6 3.99 -6 4.98 -6 6 C-5.01 6 -4.02 6 -3 6 C-3.66 5.67 -4.32 5.34 -5 5 C-5.33 4.34 -5.66 3.68 -6 3 Z " fill="#BCD539" transform="translate(134,26)"/>
<path d="M0 0 C1.33157895 5.44736842 1.33157895 5.44736842 -0.125 7.875 C-2.59477849 9.3568671 -4.16613833 9.3633156 -7 9 C-9 7 -9 7 -9.3125 4.5625 C-9 2 -9 2 -7.875 0.125 C-5.07848948 -1.55290631 -3.06309468 -0.74875648 0 0 Z M-5 2 C-5.33 3.32 -5.66 4.64 -6 6 C-5.01 6 -4.02 6 -3 6 C-2.67 4.68 -2.34 3.36 -2 2 C-2.99 2 -3.98 2 -5 2 Z " fill="#BCD539" transform="translate(88,26)"/>
<path d="M0 0 C1.4540625 0.0309375 1.4540625 0.0309375 2.9375 0.0625 C2.6075 3.3625 2.2775 6.6625 1.9375 10.0625 C-0.3725 10.0625 -2.6825 10.0625 -5.0625 10.0625 C-4.92200482 8.58281676 -4.77495174 7.10375484 -4.625 5.625 C-4.54378906 4.80128906 -4.46257812 3.97757813 -4.37890625 3.12890625 C-3.8690239 -0.20106615 -3.4903173 0.07123097 0 0 Z " fill="#BCD539" transform="translate(143.0625,24.9375)"/>
<path d="M0 0 C1.98 0 3.96 0 6 0 C6 8 6 8 5 10 C3.02 10 1.04 10 -1 10 C-1.125 2.25 -1.125 2.25 0 0 Z " fill="#BCD539" transform="translate(115,25)"/>
<path d="M0 0 C0.763125 0.20625 1.52625 0.4125 2.3125 0.625 C1.9825 1.615 1.6525 2.605 1.3125 3.625 C-0.0075 3.625 -1.3275 3.625 -2.6875 3.625 C-2.3575 4.615 -2.0275 5.605 -1.6875 6.625 C-0.3675 6.625 0.9525 6.625 2.3125 6.625 C2.3125 7.285 2.3125 7.945 2.3125 8.625 C0.0025 8.955 -2.3075 9.285 -4.6875 9.625 C-6.6875 6.625 -6.6875 6.625 -6.5 4.0625 C-5.2959794 0.45043821 -3.76396151 -0.52520393 0 0 Z " fill="#BCD539" transform="translate(72.6875,25.375)"/>
<path d="M0 0 C0.66 0 1.32 0 2 0 C1.67 2.31 1.34 4.62 1 7 C2.32 7.33 3.64 7.66 5 8 C4.67 8.66 4.34 9.32 4 10 C2.02 10 0.04 10 -2 10 C-1.85950482 8.52031676 -1.71245174 7.04125484 -1.5625 5.5625 C-1.48128906 4.73878906 -1.40007812 3.91507813 -1.31640625 3.06640625 C-1 1 -1 1 0 0 Z " fill="#BCD539" transform="translate(105,25)"/>
<path d="M0 0 C0.99 0.33 1.98 0.66 3 1 C2.67 2.98 2.34 4.96 2 7 C2.99 7 3.98 7 5 7 C5 7.99 5 8.98 5 10 C3.02 10 1.04 10 -1 10 C-0.67 6.7 -0.34 3.4 0 0 Z " fill="#BCD539" transform="translate(94,25)"/>
</svg>
